HIERARCHY
ROOT Hips
{
	OFFSET 0.000000 0.000000 0.000000 
	CHANNELS 6 Xposition Yposition Zposition Yrotation Zrotation Xrotation 
	JOINT Lumbar
	{
		OFFSET 0.000000 0.000000 0.000000 
		CHANNELS 3 Zrotation Xrotation Yrotation
		JOINT Neck
		{
			OFFSET 0.000000 0.445665 0.000000 
			CHANNELS 3 Zrotation Xrotation Yrotation
			End Site
			{
				OFFSET 0.000000 0.227535 0.000000 
			}
		}
		JOINT RightShoulder
		{
			OFFSET 0.019635 0.377685 0.194865 
			CHANNELS 3 Zrotation Xrotation Yrotation
			JOINT RightElbow
			{
				OFFSET 0.000000 -0.243375 0.000000 
				CHANNELS 2 Zrotation Yrotation
				JOINT RightWrist
				{
					OFFSET 0.000000 -0.264825 0.000000 
					CHANNELS 2 Zrotation Xrotation
					End Site
					{
						OFFSET 0.006600 -0.176220 0.000990 
					}
				}
			}
		}
		JOINT LeftShoulder
		{
			OFFSET 0.019635 0.377685 -0.194865 
			CHANNELS 3 Zrotation Xrotation Yrotation
			JOINT LeftElbow
			{
				OFFSET 0.000000 -0.243375 0.000000 
				CHANNELS 2 Zrotation Yrotation
				JOINT LeftWrist
				{
					OFFSET 0.000000 -0.264825 0.000000 
					CHANNELS 2 Zrotation Xrotation
					End Site
					{
						OFFSET 0.006600 -0.176220 -0.000990 
					}
				}
			}
		}
	}
	JOINT RightHip
	{
		OFFSET 0.052140 -0.069960 0.075570 
		CHANNELS 3 Zrotation Xrotation Yrotation
		JOINT RightKnee
		{
			OFFSET 0.000000 -0.402270 0.000000 
			CHANNELS 1 Zrotation
			JOINT RightAnkle
			{
				OFFSET 0.000000 -0.404085 0.000000 
				CHANNELS 3 Zrotation Xrotation Yrotation
				End Site
				{
					OFFSET 0.204105 -0.089430 0.008415 
				}
			}
		}
	}
	JOINT LeftHip
	{
		OFFSET 0.052140 -0.069960 -0.075570 
		CHANNELS 3 Zrotation Xrotation Yrotation
		JOINT LeftKnee
		{
			OFFSET 0.000000 -0.402270 0.000000 
			CHANNELS 1 Zrotation
			JOINT LeftAnkle
			{
				OFFSET 0.000000 -0.404085 0.000000 
				CHANNELS 3 Zrotation Xrotation Yrotation
				End Site
				{
					OFFSET 0.204105 -0.089430 -0.008415 
				}
			}
		}
	}
}
MOTION
Frames: 22
Frame Time: 0.02
-0.58703 0.70675 0.12841 905.50203 0 -5.29714 -5.44848 4.60731 -2.89693 -6.34552 21.32975 4.04633 83.38232 -43.69188 34.01211 134.29954 119.76002 -75.22716 -21.87318 20.60757 -10.78877 -40.34997 27.87442 -118.05178 -41.33247 7.86536 61.80749 0.44082 -8.05587 -60.09997 -4.47976 0.0129 9.51439 62.24369 9.40551 -0.69048 -56.99848 0.04068 -0.24832 -6.8784
-0.58656 0.70655 0.12828 905.50798 0 -5.27818 -5.55116 4.57891 -3.16704 -5.97006 21.93344 4.16453 84.50366 -43.55714 35.53483 134.30171 119.73906 -75.23006 -21.89237 19.68906 -11.3665 -40.37709 26.57535 -118.92075 -39.43121 8.14952 61.72061 0.34905 -8.11059 -59.99275 -4.09207 0.10013 9.63093 62.29475 9.45131 -0.58532 -57.18469 0.96041 -0.15909 -6.18795
-0.58601 0.7062 0.12811 905.51362 0 -5.26045 -5.67003 4.56772 -3.36014 -5.59795 22.36692 4.24407 84.83747 -43.2065 36.73074 134.30147 119.46797 -75.22937 -21.88615 18.59816 -11.73919 -40.22977 25.96003 -119.47352 -37.09287 8.40071 61.5984 0.2506 -8.41235 -59.90432 -3.52305 0.16874 9.49456 62.41753 9.49886 -0.25456 -57.52668 2.0355 0.06588 -4.93379
-0.58552 0.70592 0.12797 905.51959 0 -5.24282 -5.77761 4.55202 -3.58112 -5.23423 22.86328 4.34046 85.50392 -42.94347 38.0531 134.30105 119.33313 -75.22906 -21.88522 17.60921 -12.20205 -40.1438 25.04825 -120.1724 -35.05169 8.65984 61.49746 0.15615 -8.59292 -59.82023 -3.01209 0.24065 9.44105 62.50542 9.54454 -0.03182 -57.79604 3.03945 0.26082 -3.90677
-0.58495 0.70562 0.12778 905.52515 0 -5.22261 -5.90206 4.52372 -3.83406 -4.83114 23.41336 4.43813 86.25115 -42.70508 39.48183 134.30142 119.08116 -75.22944 -21.88722 16.522 -12.66754 -40.13582 24.08273 -120.8689 -32.58377 8.95134 61.37421 0.05799 -8.8064 -59.67976 -2.60245 0.33753 9.52233 62.60012 9.59383 0.21431 -58.06838 4.05201 0.32393 -2.98793
-0.58451 0.70533 0.12768 905.53142 0 -5.20802 -5.99512 4.52503 -4.00125 -4.51042 23.81402 4.52478 86.65482 -42.37144 40.61036 134.30125 119.01847 -75.2292 -21.88565 15.59934 -13.08237 -39.92226 23.38882 -121.48855 -30.89672 9.16669 61.2889 -0.03434 -9.01275 -59.66182 -1.93876 0.37409 9.26417 62.69868 9.63683 0.46592 -58.37323 5.08155 0.69268 -1.72276
-0.58444 0.70509 0.12784 905.53895 0 -5.20824 -5.99738 4.60618 -3.95251 -4.4098 23.84278 4.58859 86.28035 -41.8306 40.93957 134.30127 119.58485 -75.22927 -21.88623 15.15649 -13.41133 -39.19581 23.28087 -122.01956 -31.57745 9.1783 61.32027 -0.10692 -9.12754 -59.97907 -0.62503 0.28146 8.11733 62.79146 9.65626 0.6689 -58.731 6.11357 1.87874 0.4523
-0.58449 0.70487 0.12807 905.54731 0 -5.21407 -5.96752 4.71587 -3.81958 -4.39265 23.72832 4.64316 85.59502 -41.20372 40.98466 134.30131 120.34543 -75.22931 -21.88644 14.88783 -13.69681 -38.26756 23.42137 -122.47529 -33.04339 9.11427 61.3905 -0.17382 -9.22916 -60.41885 0.9383 0.12263 6.64081 62.88581 9.6704 0.87107 -59.11646 7.15696 3.36652 2.93897
-0.58449 0.70464 0.12827 905.55569 0 -5.21761 -5.95235 4.81092 -3.72351 -4.34124 23.68095 4.70354 85.06968 -40.61704 41.19042 134.30128 120.9914 -75.22929 -21.88642 14.55011 -14.00158 -37.42161 23.44482 -122.93433 -34.08299 9.08553 61.44091 -0.24466 -9.34501 -60.8021 2.39288 -0.02743 5.32276 62.97923 9.69085 1.07911 -59.48926 8.19909 4.71148 5.22152
-0.58448 0.70438 0.12849 905.56226 0 -5.22025 -5.93714 4.91395 -3.63037 -4.27486 23.61868 4.75604 84.43663 -40.01756 41.25243 134.3013 121.74021 -75.22933 -21.8867 14.1641 -14.30235 -36.60306 23.50885 -123.51175 -35.39659 9.05201 61.49928 -0.30998 -9.43517 -61.1902 3.83765 -0.08817 3.95597 63.07626 9.69502 1.27186 -59.86823 9.23265 6.08449 7.78583
-0.58451 0.7042 0.12867 905.57297 0 -5.22588 -5.91444 5.0065 -3.51254 -4.25898 23.55617 4.8229 83.96542 -39.42754 41.54992 134.3013 122.32334 -75.22934 -21.88677 13.92187 -14.60211 -35.68963 23.53952 -123.83026 -36.33645 9.01067 61.55067 -0.38537 -9.57179 -61.59621 5.35524 -0.3504 2.61997 63.16494 9.73162 1.49328 -60.23827 10.28171 7.46993 9.83231
-0.58465 0.70423 0.12876 905.59325 0 -5.24027 -5.87659 5.0668 -3.34393 -4.36594 23.52501 4.93517 84.01333 -38.88385 42.57232 134.3013 122.41192 -75.22932 -21.88666 14.03843 -14.92585 -34.49714 23.40445 -123.44123 -36.01464 8.96822 61.57416 -0.4899 -9.84509 -62.02862 7.04898 -1.1508 1.41441 63.23236 9.86071 1.79294 -60.58158 11.39495 8.80482 10.34803
-0.58482 0.70435 0.12882 905.61792 0 -5.25717 -5.83271 5.11488 -3.15447 -4.52005 23.5001 5.06176 84.23943 -38.35428 43.84111 134.30129 122.32659 -75.22931 -21.8865 14.29369 -15.24815 -33.22952 23.2261 -122.79795 -35.29882 8.92031 61.58928 -0.60468 -10.16337 -62.47306 8.79852 -2.15025 0.25912 63.29057 10.02226 2.12039 -60.91311 12.51761 10.14172 10.33317
-0.58496 0.70443 0.12888 905.64174 0 -5.27164 -5.79298 5.16599 -2.97689 -4.65015 23.4751 5.17974 84.39076 -37.81951 44.99666 134.30129 122.31518 -75.22929 -21.88635 14.48348 -15.56153 -32.04064 23.07258 -122.27982 -34.79034 8.87373 61.60784 -0.71484 -10.45649 -62.90785 10.49942 -3.062 -0.89488 63.35122 10.16788 2.4349 -61.2464 13.61996 11.48611 10.57504
-0.58514 0.70452 0.12898 905.66097 0 -5.29156 -5.74601 5.22848 -2.7857 -4.79439 23.43301 5.30631 84.50526 -37.2751 46.1517 134.30129 122.33137 -75.22927 -21.88618 14.68964 -15.9135 -30.65591 22.90663 -121.71804 -34.18984 8.82926 61.62931 -0.82488 -10.7694 -63.36615 12.31239 -3.97152 -2.16269 63.41938 10.31839 2.75148 -61.59666 14.79248 12.81165 10.76403
-0.58526 0.7046 0.12899 905.69054 0 -5.30087 -5.71335 5.26432 -2.61956 -4.91889 23.43033 5.41842 84.742 -36.757 47.36469 134.30128 122.24702 -75.22926 -21.88607 14.89224 -16.18554 -29.66445 22.75267 -121.18817 -33.67695 8.78021 61.64216 -0.93741 -11.0517 -63.7748 13.89568 -4.92319 -3.17688 63.46965 10.46636 3.06953 -61.90746 15.81842 14.16545 10.93081
-0.58523 0.70465 0.12871 905.74965 0 -5.27836 -5.71971 5.22661 -2.5238 -4.98064 23.53183 5.48795 85.28295 -36.2943 48.72524 134.30129 121.92034 -75.22927 -21.88618 15.05235 -16.23597 -29.77407 22.64268 -120.80579 -33.50159 8.71901 61.63378 -1.05656 -11.23968 -64.0593 14.88193 -6.01881 -3.50317 63.47289 10.60041 3.391 -62.11922 16.45629 15.65589 11.18144
-0.58515 0.70469 0.12834 905.8186 0 -5.24543 -5.74116 5.16293 -2.45529 -5.02012 23.67391 5.54241 85.94014 -35.86078 50.12806 134.30129 121.49876 -75.22929 -21.88636 15.20322 -16.20641 -30.28343 22.54485 -120.4649 -33.42399 8.65392 61.61673 -1.17745 -11.395 -64.28978 15.62375 -7.13574 -3.57408 63.45838 10.73054 3.71164 -62.2898 16.94141 17.15959 11.42282
-0.5851 0.70474 0.12802 905.88171 0 -5.21849 -5.75722 5.11284 -2.3771 -5.06688 23.80043 5.60311 86.53949 -35.42324 51.48171 134.30129 121.12462 -75.22931 -21.88649 15.35634 -16.21463 -30.61335 22.43999 -120.1077 -33.29859 8.59157 61.6031 -1.29616 -11.56467 -64.53401 16.44364 -8.19213 -3.76037 63.45195 10.86187 4.02882 -62.475 17.48556 18.62018 11.65761
-0.58505 0.70478 0.12766 905.95085 0 -5.18629 -5.76709 5.05461 -2.28607 -5.12624 23.91566 5.66646 87.16745 -34.94654 52.97053 134.3013 120.72685 -75.22932 -21.88667 15.52172 -16.21705 -30.93233 22.34025 -119.73217 -33.17527 8.52493 61.59137 -1.42124 -11.73843 -64.82454 17.40748 -9.4688 -3.94869 63.44529 10.99702 4.36392 -62.67881 18.07921 20.24806 11.92255
-0.58497 0.70482 0.12736 906.00957 0 -5.16259 -5.79324 5.00758 -2.22932 -5.15481 24.06301 5.72103 87.75932 -34.55891 54.18431 134.3013 120.35733 -75.22934 -21.88678 15.65869 -16.21217 -31.36849 22.23314 -119.40629 -33.0745 8.46628 61.57377 -1.53313 -11.89477 -65.00536 18.00958 -10.29089 -4.07189 63.43481 11.12255 4.66019 -62.83207 18.52674 21.51746 12.12575
-0.5848 0.70489 0.12722 906.03836 0 -5.16464 -5.86282 4.9957 -2.25557 -5.09347 24.29693 5.75285 88.23898 -34.40391 54.63044 134.3013 120.09519 -75.22932 -21.88667 15.70969 -16.21025 -32.04445 22.10356 -119.2237 -33.02463 8.43162 61.54162 -1.60969 -12.01564 -64.89817 17.69722 -9.83635 -4.08469 63.41986 11.22478 4.85706 -62.87429 18.66392 21.90804 12.19431
